<svg width="44" height="44" viewBox="0 0 44 44" fill="none" xmlns="http://www.w3.org/2000/svg">
<rect width="43.8462" height="43.8462" rx="21.9231" fill="#12C868"/>
<path d="M24.1775 12H19.7475C15.4591 12 12 15.1131 12 18.9771V21.9673C12 24.6662 13.7194 27.1194 16.43 28.2663V31.607C16.43 31.7754 16.602 31.9301 16.8194 31.9301C16.9054 31.9301 17.0065 31.8982 17.0773 31.8391L20.2785 28.9399H24.1775C28.471 28.9399 31.9301 25.8268 31.9301 21.9628V18.9726C31.9301 15.1131 28.471 12 24.1775 12ZM27.0904 25.0759L25.9829 26.0726C24.7895 27.1148 21.7248 25.9179 19.0142 23.4374C16.3036 20.9569 15.1 18.1488 16.2429 17.1065L17.3504 16.1098C17.7955 15.7412 18.4933 15.7594 18.9333 16.1417L20.5364 17.6436C20.946 18.0441 20.946 18.6403 20.501 19.0408C20.3796 19.1501 20.2431 19.2092 20.0914 19.273C19.5301 19.4277 19.2418 19.9147 19.3783 20.4244C19.6514 21.5304 21.1989 22.9094 22.3772 23.1825C22.9234 23.3054 23.4847 23.0278 23.6718 22.5544C23.8589 22.0629 24.4709 21.7898 25.0524 21.9582C25.2244 22.0037 25.3609 22.113 25.4975 22.204L27.1006 23.7059C27.5001 24.0655 27.5001 24.6799 27.0904 25.0759ZM22.9537 16.7379C22.8323 16.7379 22.7312 16.7379 22.6301 16.7698C22.443 16.8016 22.2407 16.6605 22.2204 16.4648C22.2002 16.2691 22.3418 16.1144 22.5441 16.0962C22.6806 16.0643 22.8172 16.0643 22.9537 16.0643C24.9968 16.0643 26.6353 17.5662 26.6656 19.3776C26.6656 19.5005 26.6656 19.6234 26.6302 19.7463C26.5948 19.9147 26.4431 20.0694 26.2206 20.0376C25.9981 20.0057 25.8616 19.8692 25.897 19.6689C25.897 19.5597 25.9324 19.4687 25.9324 19.3776C25.9172 17.9349 24.5872 16.7379 22.9537 16.7379ZM25.1687 19.405C25.1333 19.5733 24.9816 19.7281 24.7591 19.6962C24.5872 19.6644 24.4355 19.5415 24.4355 19.405C24.4355 18.6858 23.773 18.0851 22.9689 18.0851C22.7818 18.1169 22.5795 17.9622 22.5593 17.7801C22.5239 17.6117 22.6958 17.4297 22.8829 17.4115H22.9335C24.2129 17.4115 25.1687 18.299 25.1687 19.405ZM27.9957 20.4609C27.9603 20.6292 27.7732 20.7521 27.586 20.7385C27.3989 20.7248 27.2624 20.5382 27.2776 20.3698C27.2776 20.338 27.2776 20.338 27.2776 20.3243C27.3635 20.033 27.3989 19.7281 27.3989 19.405C27.3989 17.2112 25.4064 15.418 22.9689 15.418C22.8475 15.418 22.7464 15.418 22.6452 15.418C22.4581 15.4499 22.2558 15.2951 22.2558 15.1131C22.2204 14.9447 22.3924 14.7626 22.5795 14.7626C22.716 14.7626 22.8526 14.7308 22.9689 14.7308C25.816 14.7308 28.1474 16.8153 28.1474 19.3913C28.1322 19.7417 28.0816 20.1241 27.9957 20.4609Z" fill="white"/>
</svg>
